<svg id="visual" viewBox="0 0 1903 800" width="1903" height="800" xmlns="http://www.w3.org/2000/svg" xmlns:xlink="http://www.w3.org/1999/xlink" version="1.1"><rect x="0" y="0" width="1903" height="800" fill="#010c14"></rect><path d="M0 693L21.2 695.8C42.3 698.7 84.7 704.3 127 708.3C169.3 712.3 211.7 714.7 254 715C296.3 715.3 338.7 713.7 380.8 711C423 708.3 465 704.7 507.2 705.2C549.3 705.7 591.7 710.3 634 705.2C676.3 700 718.7 685 761 679.3C803.3 673.7 845.7 677.3 888 683.8C930.3 690.3 972.7 699.7 1015 700.2C1057.3 700.7 1099.7 692.3 1142 693.7C1184.3 695 1226.7 706 1269 711.7C1311.3 717.3 1353.7 717.7 1395.8 709.5C1438 701.3 1480 684.7 1522.2 683.8C1564.3 683 1606.7 698 1649 704.7C1691.3 711.3 1733.7 709.7 1776 707.8C1818.3 706 1860.7 704 1881.8 703L1903 702L1903 801L1881.8 801C1860.7 801 1818.3 801 1776 801C1733.7 801 1691.3 801 1649 801C1606.7 801 1564.3 801 1522.2 801C1480 801 1438 801 1395.8 801C1353.7 801 1311.3 801 1269 801C1226.7 801 1184.3 801 1142 801C1099.7 801 1057.3 801 1015 801C972.7 801 930.3 801 888 801C845.7 801 803.3 801 761 801C718.7 801 676.3 801 634 801C591.7 801 549.3 801 507.2 801C465 801 423 801 380.8 801C338.7 801 296.3 801 254 801C211.7 801 169.3 801 127 801C84.7 801 42.3 801 21.2 801L0 801Z" fill="#0f135a"></path><path d="M0 739L21.2 736.5C42.3 734 84.7 729 127 727.5C169.3 726 211.7 728 254 724.8C296.3 721.7 338.7 713.3 380.8 713.5C423 713.7 465 722.3 507.2 727.2C549.3 732 591.7 733 634 735.2C676.3 737.3 718.7 740.7 761 737C803.3 733.3 845.7 722.7 888 721.8C930.3 721 972.7 730 1015 732.2C1057.3 734.3 1099.7 729.7 1142 727.5C1184.3 725.3 1226.7 725.7 1269 727.5C1311.3 729.3 1353.7 732.7 1395.8 735.3C1438 738 1480 740 1522.2 741.7C1564.3 743.3 1606.7 744.7 1649 741.7C1691.3 738.7 1733.7 731.3 1776 731.8C1818.3 732.3 1860.7 740.7 1881.8 744.8L1903 749L1903 801L1881.8 801C1860.7 801 1818.3 801 1776 801C1733.7 801 1691.3 801 1649 801C1606.7 801 1564.3 801 1522.2 801C1480 801 1438 801 1395.8 801C1353.7 801 1311.3 801 1269 801C1226.7 801 1184.3 801 1142 801C1099.7 801 1057.3 801 1015 801C972.7 801 930.3 801 888 801C845.7 801 803.3 801 761 801C718.7 801 676.3 801 634 801C591.7 801 549.3 801 507.2 801C465 801 423 801 380.8 801C338.7 801 296.3 801 254 801C211.7 801 169.3 801 127 801C84.7 801 42.3 801 21.2 801L0 801Z" fill="#101136"></path><path d="M0 754L21.2 754.7C42.3 755.3 84.7 756.7 127 755.5C169.3 754.3 211.7 750.7 254 753.5C296.3 756.3 338.7 765.7 380.8 767.5C423 769.3 465 763.7 507.2 761.3C549.3 759 591.7 760 634 761C676.3 762 718.7 763 761 760C803.3 757 845.7 750 888 750.5C930.3 751 972.7 759 1015 764.5C1057.3 770 1099.7 773 1142 769.5C1184.3 766 1226.7 756 1269 750.7C1311.3 745.3 1353.7 744.7 1395.8 747.2C1438 749.7 1480 755.3 1522.2 757.5C1564.3 759.7 1606.7 758.3 1649 756.8C1691.3 755.3 1733.7 753.7 1776 757.2C1818.3 760.7 1860.7 769.3 1881.8 773.7L1903 778L1903 801L1881.8 801C1860.7 801 1818.3 801 1776 801C1733.7 801 1691.3 801 1649 801C1606.7 801 1564.3 801 1522.2 801C1480 801 1438 801 1395.8 801C1353.7 801 1311.3 801 1269 801C1226.7 801 1184.3 801 1142 801C1099.7 801 1057.3 801 1015 801C972.7 801 930.3 801 888 801C845.7 801 803.3 801 761 801C718.7 801 676.3 801 634 801C591.7 801 549.3 801 507.2 801C465 801 423 801 380.8 801C338.7 801 296.3 801 254 801C211.7 801 169.3 801 127 801C84.7 801 42.3 801 21.2 801L0 801Z" fill="#0a0814"></path></svg>