<svg id="visual" viewBox="0 0 1903 800" width="1903" height="800" xmlns="http://www.w3.org/2000/svg" xmlns:xlink="http://www.w3.org/1999/xlink" version="1.1"><rect x="0" y="0" width="1903" height="800" fill="#010c14"></rect><path d="M0 709L45.3 702.7C90.7 696.3 181.3 683.7 272 680.8C362.7 678 453.3 685 544 687.5C634.7 690 725.3 688 815.8 687.2C906.3 686.3 996.7 686.7 1087.2 692.7C1177.7 698.7 1268.3 710.3 1359 714C1449.7 717.7 1540.3 713.3 1631 709.5C1721.7 705.7 1812.3 702.3 1857.7 700.7L1903 699L1903 801L1857.7 801C1812.3 801 1721.7 801 1631 801C1540.3 801 1449.7 801 1359 801C1268.3 801 1177.7 801 1087.2 801C996.7 801 906.3 801 815.8 801C725.3 801 634.7 801 544 801C453.3 801 362.7 801 272 801C181.3 801 90.7 801 45.3 801L0 801Z" fill="#ffffff"></path><path d="M0 732L45.3 734.3C90.7 736.7 181.3 741.3 272 744C362.7 746.7 453.3 747.3 544 740.3C634.7 733.3 725.3 718.7 815.8 718.3C906.3 718 996.7 732 1087.2 734.2C1177.7 736.3 1268.3 726.7 1359 724C1449.7 721.3 1540.3 725.7 1631 731C1721.7 736.3 1812.3 742.7 1857.7 745.8L1903 749L1903 801L1857.7 801C1812.3 801 1721.7 801 1631 801C1540.3 801 1449.7 801 1359 801C1268.3 801 1177.7 801 1087.2 801C996.7 801 906.3 801 815.8 801C725.3 801 634.7 801 544 801C453.3 801 362.7 801 272 801C181.3 801 90.7 801 45.3 801L0 801Z" fill="#99828a"></path><path d="M0 758L45.3 761C90.7 764 181.3 770 272 771.8C362.7 773.7 453.3 771.3 544 765.8C634.7 760.3 725.3 751.7 815.8 746.7C906.3 741.7 996.7 740.3 1087.2 745C1177.7 749.7 1268.3 760.3 1359 760.8C1449.7 761.3 1540.3 751.7 1631 748.7C1721.7 745.7 1812.3 749.3 1857.7 751.2L1903 753L1903 801L1857.7 801C1812.3 801 1721.7 801 1631 801C1540.3 801 1449.7 801 1359 801C1268.3 801 1177.7 801 1087.2 801C996.7 801 906.3 801 815.8 801C725.3 801 634.7 801 544 801C453.3 801 362.7 801 272 801C181.3 801 90.7 801 45.3 801L0 801Z" fill="#3a1625"></path></svg>