<svg id="visual" viewBox="0 0 1903 900" width="1903" height="900" xmlns="http://www.w3.org/2000/svg" xmlns:xlink="http://www.w3.org/1999/xlink" version="1.1"><rect x="0" y="0" width="1903" height="900" fill="#010c14"></rect><path d="M0 702L79.3 710.2C158.7 718.3 317.3 734.7 476 735C634.7 735.3 793.3 719.7 951.8 710.8C1110.3 702 1268.7 700 1427.2 707.5C1585.7 715 1744.3 732 1823.7 740.5L1903 749L1903 901L1823.7 901C1744.3 901 1585.7 901 1427.2 901C1268.7 901 1110.3 901 951.8 901C793.3 901 634.7 901 476 901C317.3 901 158.7 901 79.3 901L0 901Z" fill="#0f135a"></path><path d="M0 770L79.3 776.5C158.7 783 317.3 796 476 791.2C634.7 786.3 793.3 763.7 951.8 754.3C1110.3 745 1268.7 749 1427.2 751.3C1585.7 753.7 1744.3 754.3 1823.7 754.7L1903 755L1903 901L1823.7 901C1744.3 901 1585.7 901 1427.2 901C1268.7 901 1110.3 901 951.8 901C793.3 901 634.7 901 476 901C317.3 901 158.7 901 79.3 901L0 901Z" fill="#101136"></path><path d="M0 854L79.3 845.7C158.7 837.3 317.3 820.7 476 812.5C634.7 804.3 793.3 804.7 951.8 812.7C1110.3 820.7 1268.7 836.3 1427.2 843.3C1585.7 850.3 1744.3 848.7 1823.7 847.8L1903 847L1903 901L1823.7 901C1744.3 901 1585.7 901 1427.2 901C1268.7 901 1110.3 901 951.8 901C793.3 901 634.7 901 476 901C317.3 901 158.7 901 79.3 901L0 901Z" fill="#0a0814"></path></svg>