<svg id="visual" viewBox="0 0 4060 800" width="4060" height="800" xmlns="http://www.w3.org/2000/svg" xmlns:xlink="http://www.w3.org/1999/xlink" version="1.1"><rect x="0" y="0" width="4060" height="800" fill="#010c14"></rect><path d="M0 142L29.5 138.5C59 135 118 128 176.8 127.3C235.7 126.7 294.3 132.3 353.2 133.5C412 134.7 471 131.3 529.8 130.8C588.7 130.3 647.3 132.7 706.2 122.2C765 111.7 824 88.3 882.8 86C941.7 83.7 1000.3 102.3 1059.2 106.8C1118 111.3 1177 101.7 1235.8 98.5C1294.7 95.3 1353.3 98.7 1412.2 101.8C1471 105 1530 108 1588.8 106.8C1647.7 105.7 1706.3 100.3 1765.2 97.8C1824 95.3 1883 95.7 1941.8 104.5C2000.7 113.3 2059.3 130.7 2118.2 128.8C2177 127 2236 106 2294.8 101.5C2353.7 97 2412.3 109 2471.2 108C2530 107 2589 93 2647.8 89C2706.7 85 2765.3 91 2824.2 92.3C2883 93.7 2942 90.3 3000.8 88.8C3059.7 87.3 3118.3 87.7 3177.2 88.2C3236 88.7 3295 89.3 3353.8 90.7C3412.7 92 3471.3 94 3530.2 101.8C3589 109.7 3648 123.3 3706.8 119.5C3765.7 115.7 3824.3 94.3 3883.2 87.8C3942 81.3 4001 89.7 4030.5 93.8L4060 98L4060 0L4030.5 0C4001 0 3942 0 3883.2 0C3824.3 0 3765.7 0 3706.8 0C3648 0 3589 0 3530.2 0C3471.3 0 3412.7 0 3353.8 0C3295 0 3236 0 3177.2 0C3118.3 0 3059.7 0 3000.8 0C2942 0 2883 0 2824.2 0C2765.3 0 2706.7 0 2647.8 0C2589 0 2530 0 2471.2 0C2412.3 0 2353.7 0 2294.8 0C2236 0 2177 0 2118.2 0C2059.3 0 2000.7 0 1941.8 0C1883 0 1824 0 1765.2 0C1706.3 0 1647.7 0 1588.8 0C1530 0 1471 0 1412.2 0C1353.3 0 1294.7 0 1235.8 0C1177 0 1118 0 1059.2 0C1000.3 0 941.7 0 882.8 0C824 0 765 0 706.2 0C647.3 0 588.7 0 529.8 0C471 0 412 0 353.2 0C294.3 0 235.7 0 176.8 0C118 0 59 0 29.5 0L0 0Z" fill="#0f135a"></path><path d="M0 87L29.5 82.3C59 77.7 118 68.3 176.8 73.2C235.7 78 294.3 97 353.2 98.8C412 100.7 471 85.3 529.8 84.5C588.7 83.7 647.3 97.3 706.2 100.2C765 103 824 95 882.8 86.5C941.7 78 1000.3 69 1059.2 64.5C1118 60 1177 60 1235.8 63.2C1294.7 66.3 1353.3 72.7 1412.2 74.7C1471 76.7 1530 74.3 1588.8 78.3C1647.7 82.3 1706.3 92.7 1765.2 89.8C1824 87 1883 71 1941.8 66.5C2000.7 62 2059.3 69 2118.2 77.3C2177 85.7 2236 95.3 2294.8 99.5C2353.7 103.7 2412.3 102.3 2471.2 98.8C2530 95.3 2589 89.7 2647.8 87.8C2706.7 86 2765.3 88 2824.2 87.3C2883 86.7 2942 83.3 3000.8 88.8C3059.7 94.3 3118.3 108.7 3177.2 109C3236 109.3 3295 95.7 3353.8 95.2C3412.7 94.7 3471.3 107.3 3530.2 112.8C3589 118.3 3648 116.7 3706.8 105C3765.7 93.3 3824.3 71.7 3883.2 66.8C3942 62 4001 74 4030.5 80L4060 86L4060 0L4030.5 0C4001 0 3942 0 3883.2 0C3824.3 0 3765.7 0 3706.8 0C3648 0 3589 0 3530.2 0C3471.3 0 3412.7 0 3353.8 0C3295 0 3236 0 3177.2 0C3118.3 0 3059.7 0 3000.8 0C2942 0 2883 0 2824.2 0C2765.3 0 2706.7 0 2647.8 0C2589 0 2530 0 2471.2 0C2412.3 0 2353.7 0 2294.8 0C2236 0 2177 0 2118.2 0C2059.3 0 2000.7 0 1941.8 0C1883 0 1824 0 1765.2 0C1706.3 0 1647.7 0 1588.8 0C1530 0 1471 0 1412.2 0C1353.3 0 1294.7 0 1235.8 0C1177 0 1118 0 1059.2 0C1000.3 0 941.7 0 882.8 0C824 0 765 0 706.2 0C647.3 0 588.7 0 529.8 0C471 0 412 0 353.2 0C294.3 0 235.7 0 176.8 0C118 0 59 0 29.5 0L0 0Z" fill="#0f1348"></path><path d="M0 38L29.5 38C59 38 118 38 176.8 44.5C235.7 51 294.3 64 353.2 67.2C412 70.3 471 63.7 529.8 59.7C588.7 55.7 647.3 54.3 706.2 51C765 47.7 824 42.3 882.8 47.7C941.7 53 1000.3 69 1059.2 79C1118 89 1177 93 1235.8 88.8C1294.7 84.7 1353.3 72.3 1412.2 72.2C1471 72 1530 84 1588.8 84.2C1647.7 84.3 1706.3 72.7 1765.2 67.5C1824 62.3 1883 63.7 1941.8 65.3C2000.7 67 2059.3 69 2118.2 73C2177 77 2236 83 2294.8 84.7C2353.7 86.3 2412.3 83.7 2471.2 84.5C2530 85.3 2589 89.7 2647.8 88.7C2706.7 87.7 2765.3 81.3 2824.2 80C2883 78.7 2942 82.3 3000.8 81.8C3059.7 81.3 3118.3 76.7 3177.2 76.5C3236 76.3 3295 80.7 3353.8 78.3C3412.7 76 3471.3 67 3530.2 68.8C3589 70.7 3648 83.3 3706.8 83C3765.7 82.7 3824.3 69.3 3883.2 67.7C3942 66 4001 76 4030.5 81L4060 86L4060 0L4030.5 0C4001 0 3942 0 3883.2 0C3824.3 0 3765.7 0 3706.8 0C3648 0 3589 0 3530.2 0C3471.3 0 3412.7 0 3353.8 0C3295 0 3236 0 3177.2 0C3118.3 0 3059.7 0 3000.8 0C2942 0 2883 0 2824.2 0C2765.3 0 2706.7 0 2647.8 0C2589 0 2530 0 2471.2 0C2412.3 0 2353.7 0 2294.8 0C2236 0 2177 0 2118.2 0C2059.3 0 2000.7 0 1941.8 0C1883 0 1824 0 1765.2 0C1706.3 0 1647.7 0 1588.8 0C1530 0 1471 0 1412.2 0C1353.3 0 1294.7 0 1235.8 0C1177 0 1118 0 1059.2 0C1000.3 0 941.7 0 882.8 0C824 0 765 0 706.2 0C647.3 0 588.7 0 529.8 0C471 0 412 0 353.2 0C294.3 0 235.7 0 176.8 0C118 0 59 0 29.5 0L0 0Z" fill="#101136"></path><path d="M0 24L29.5 27.3C59 30.7 118 37.3 176.8 45C235.7 52.7 294.3 61.3 353.2 58.8C412 56.3 471 42.7 529.8 34.2C588.7 25.7 647.3 22.3 706.2 25.8C765 29.3 824 39.7 882.8 48.3C941.7 57 1000.3 64 1059.2 61.7C1118 59.3 1177 47.7 1235.8 40C1294.7 32.3 1353.3 28.7 1412.2 28C1471 27.3 1530 29.7 1588.8 31C1647.7 32.3 1706.3 32.7 1765.2 34.3C1824 36 1883 39 1941.8 43C2000.7 47 2059.3 52 2118.2 55.7C2177 59.3 2236 61.7 2294.8 64C2353.7 66.3 2412.3 68.7 2471.2 63C2530 57.3 2589 43.7 2647.8 38C2706.7 32.3 2765.3 34.7 2824.2 41.3C2883 48 2942 59 3000.8 64.7C3059.7 70.3 3118.3 70.7 3177.2 70.5C3236 70.3 3295 69.7 3353.8 68C3412.7 66.3 3471.3 63.7 3530.2 59.7C3589 55.7 3648 50.3 3706.8 51.8C3765.7 53.3 3824.3 61.7 3883.2 64.2C3942 66.7 4001 63.3 4030.5 61.7L4060 60L4060 0L4030.5 0C4001 0 3942 0 3883.2 0C3824.3 0 3765.7 0 3706.8 0C3648 0 3589 0 3530.2 0C3471.3 0 3412.7 0 3353.8 0C3295 0 3236 0 3177.2 0C3118.3 0 3059.7 0 3000.8 0C2942 0 2883 0 2824.2 0C2765.3 0 2706.7 0 2647.8 0C2589 0 2530 0 2471.2 0C2412.3 0 2353.7 0 2294.8 0C2236 0 2177 0 2118.2 0C2059.3 0 2000.7 0 1941.8 0C1883 0 1824 0 1765.2 0C1706.3 0 1647.7 0 1588.8 0C1530 0 1471 0 1412.2 0C1353.3 0 1294.7 0 1235.8 0C1177 0 1118 0 1059.2 0C1000.3 0 941.7 0 882.8 0C824 0 765 0 706.2 0C647.3 0 588.7 0 529.8 0C471 0 412 0 353.2 0C294.3 0 235.7 0 176.8 0C118 0 59 0 29.5 0L0 0Z" fill="#100d25"></path><path d="M0 39L29.5 39.7C59 40.3 118 41.7 176.8 41C235.7 40.3 294.3 37.7 353.2 31.2C412 24.7 471 14.3 529.8 14C588.7 13.7 647.3 23.3 706.2 28.8C765 34.3 824 35.7 882.8 32.5C941.7 29.3 1000.3 21.7 1059.2 18.5C1118 15.3 1177 16.7 1235.8 16.7C1294.7 16.7 1353.3 15.3 1412.2 17.2C1471 19 1530 24 1588.8 26.5C1647.7 29 1706.3 29 1765.2 26.5C1824 24 1883 19 1941.8 16.2C2000.7 13.3 2059.3 12.7 2118.2 16C2177 19.3 2236 26.7 2294.8 26.8C2353.7 27 2412.3 20 2471.2 21.7C2530 23.3 2589 33.7 2647.8 34.5C2706.7 35.3 2765.3 26.7 2824.2 27C2883 27.3 2942 36.7 3000.8 35.7C3059.7 34.7 3118.3 23.3 3177.2 19C3236 14.7 3295 17.3 3353.8 17.3C3412.7 17.3 3471.3 14.7 3530.2 13.7C3589 12.7 3648 13.3 3706.8 19.2C3765.7 25 3824.3 36 3883.2 41.3C3942 46.7 4001 46.3 4030.5 46.2L4060 46L4060 0L4030.5 0C4001 0 3942 0 3883.2 0C3824.3 0 3765.7 0 3706.8 0C3648 0 3589 0 3530.2 0C3471.3 0 3412.7 0 3353.8 0C3295 0 3236 0 3177.2 0C3118.3 0 3059.7 0 3000.8 0C2942 0 2883 0 2824.2 0C2765.3 0 2706.7 0 2647.8 0C2589 0 2530 0 2471.2 0C2412.3 0 2353.7 0 2294.8 0C2236 0 2177 0 2118.2 0C2059.3 0 2000.7 0 1941.8 0C1883 0 1824 0 1765.2 0C1706.3 0 1647.7 0 1588.8 0C1530 0 1471 0 1412.2 0C1353.3 0 1294.7 0 1235.8 0C1177 0 1118 0 1059.2 0C1000.3 0 941.7 0 882.8 0C824 0 765 0 706.2 0C647.3 0 588.7 0 529.8 0C471 0 412 0 353.2 0C294.3 0 235.7 0 176.8 0C118 0 59 0 29.5 0L0 0Z" fill="#0a0814"></path></svg>