<svg id="visual" viewBox="0 0 4060 800" width="4060" height="800" xmlns="http://www.w3.org/2000/svg" xmlns:xlink="http://www.w3.org/1999/xlink" version="1.1"><rect x="0" y="0" width="4060" height="800" fill="#010c14"></rect><path d="M0 145L37.7 139.8C75.3 134.7 150.7 124.3 225.8 128C301 131.7 376 149.3 451.2 166.7C526.3 184 601.7 201 676.8 192.3C752 183.7 827 149.3 902.2 134.5C977.3 119.7 1052.7 124.3 1127.8 122.3C1203 120.3 1278 111.7 1353.2 111.3C1428.3 111 1503.7 119 1578.8 123.5C1654 128 1729 129 1804.2 131.5C1879.3 134 1954.7 138 2030 139.3C2105.3 140.7 2180.7 139.3 2255.8 150C2331 160.7 2406 183.3 2481.2 179.5C2556.3 175.7 2631.7 145.3 2706.8 147.2C2782 149 2857 183 2932.2 200.2C3007.3 217.3 3082.7 217.7 3157.8 211.3C3233 205 3308 192 3383.2 176.8C3458.3 161.7 3533.7 144.3 3608.8 137.7C3684 131 3759 135 3834.2 142.5C3909.3 150 3984.7 161 4022.3 166.5L4060 172L4060 0L4022.3 0C3984.7 0 3909.3 0 3834.2 0C3759 0 3684 0 3608.8 0C3533.7 0 3458.3 0 3383.2 0C3308 0 3233 0 3157.8 0C3082.7 0 3007.3 0 2932.2 0C2857 0 2782 0 2706.8 0C2631.7 0 2556.3 0 2481.2 0C2406 0 2331 0 2255.8 0C2180.7 0 2105.3 0 2030 0C1954.7 0 1879.3 0 1804.2 0C1729 0 1654 0 1578.8 0C1503.7 0 1428.3 0 1353.2 0C1278 0 1203 0 1127.8 0C1052.7 0 977.3 0 902.2 0C827 0 752 0 676.8 0C601.7 0 526.3 0 451.2 0C376 0 301 0 225.8 0C150.7 0 75.3 0 37.7 0L0 0Z" fill="#0f135a"></path><path d="M0 144L37.7 149.5C75.3 155 150.7 166 225.8 165.7C301 165.3 376 153.7 451.2 153.8C526.3 154 601.7 166 676.8 165.8C752 165.7 827 153.3 902.2 152.5C977.3 151.7 1052.7 162.3 1127.8 169.5C1203 176.7 1278 180.3 1353.2 177.3C1428.3 174.3 1503.7 164.7 1578.8 149C1654 133.3 1729 111.7 1804.2 110C1879.3 108.3 1954.7 126.7 2030 128.5C2105.3 130.3 2180.7 115.7 2255.8 106.5C2331 97.3 2406 93.7 2481.2 91.8C2556.3 90 2631.7 90 2706.8 96C2782 102 2857 114 2932.2 111.8C3007.3 109.7 3082.7 93.3 3157.8 88.7C3233 84 3308 91 3383.2 93.8C3458.3 96.7 3533.7 95.3 3608.8 96.2C3684 97 3759 100 3834.2 110.2C3909.3 120.3 3984.7 137.7 4022.3 146.3L4060 155L4060 0L4022.3 0C3984.7 0 3909.3 0 3834.2 0C3759 0 3684 0 3608.8 0C3533.7 0 3458.3 0 3383.2 0C3308 0 3233 0 3157.8 0C3082.7 0 3007.3 0 2932.2 0C2857 0 2782 0 2706.8 0C2631.7 0 2556.3 0 2481.2 0C2406 0 2331 0 2255.8 0C2180.7 0 2105.3 0 2030 0C1954.7 0 1879.3 0 1804.2 0C1729 0 1654 0 1578.8 0C1503.7 0 1428.3 0 1353.2 0C1278 0 1203 0 1127.8 0C1052.7 0 977.3 0 902.2 0C827 0 752 0 676.8 0C601.7 0 526.3 0 451.2 0C376 0 301 0 225.8 0C150.7 0 75.3 0 37.7 0L0 0Z" fill="#0f1348"></path><path d="M0 95L37.7 97.5C75.3 100 150.7 105 225.8 111.3C301 117.7 376 125.3 451.2 122.8C526.3 120.3 601.7 107.7 676.8 98C752 88.3 827 81.7 902.2 76.8C977.3 72 1052.7 69 1127.8 71.5C1203 74 1278 82 1353.2 89.5C1428.3 97 1503.7 104 1578.8 110.5C1654 117 1729 123 1804.2 128.3C1879.3 133.7 1954.7 138.3 2030 131.8C2105.3 125.3 2180.7 107.7 2255.8 104C2331 100.3 2406 110.7 2481.2 109.5C2556.3 108.3 2631.7 95.7 2706.8 86.3C2782 77 2857 71 2932.2 81.7C3007.3 92.3 3082.7 119.7 3157.8 125.8C3233 132 3308 117 3383.2 108.5C3458.3 100 3533.7 98 3608.8 100.7C3684 103.3 3759 110.7 3834.2 112.5C3909.3 114.3 3984.7 110.7 4022.3 108.8L4060 107L4060 0L4022.3 0C3984.7 0 3909.3 0 3834.2 0C3759 0 3684 0 3608.8 0C3533.7 0 3458.3 0 3383.2 0C3308 0 3233 0 3157.8 0C3082.7 0 3007.3 0 2932.2 0C2857 0 2782 0 2706.8 0C2631.7 0 2556.3 0 2481.2 0C2406 0 2331 0 2255.8 0C2180.7 0 2105.3 0 2030 0C1954.7 0 1879.3 0 1804.2 0C1729 0 1654 0 1578.8 0C1503.7 0 1428.3 0 1353.2 0C1278 0 1203 0 1127.8 0C1052.7 0 977.3 0 902.2 0C827 0 752 0 676.8 0C601.7 0 526.3 0 451.2 0C376 0 301 0 225.8 0C150.7 0 75.3 0 37.7 0L0 0Z" fill="#101136"></path><path d="M0 53L37.7 52.7C75.3 52.3 150.7 51.7 225.8 48.3C301 45 376 39 451.2 46.2C526.3 53.3 601.7 73.7 676.8 85.3C752 97 827 100 902.2 90C977.3 80 1052.7 57 1127.8 57C1203 57 1278 80 1353.2 83.2C1428.3 86.3 1503.7 69.7 1578.8 59C1654 48.3 1729 43.7 1804.2 40.3C1879.3 37 1954.7 35 2030 41.3C2105.3 47.7 2180.7 62.3 2255.8 73.8C2331 85.3 2406 93.7 2481.2 87.3C2556.3 81 2631.7 60 2706.8 56.5C2782 53 2857 67 2932.2 76C3007.3 85 3082.7 89 3157.8 83.2C3233 77.3 3308 61.7 3383.2 57.7C3458.3 53.7 3533.7 61.3 3608.8 66.3C3684 71.3 3759 73.7 3834.2 75.5C3909.3 77.3 3984.7 78.7 4022.3 79.3L4060 80L4060 0L4022.3 0C3984.7 0 3909.3 0 3834.2 0C3759 0 3684 0 3608.8 0C3533.7 0 3458.3 0 3383.2 0C3308 0 3233 0 3157.8 0C3082.7 0 3007.3 0 2932.2 0C2857 0 2782 0 2706.8 0C2631.7 0 2556.3 0 2481.2 0C2406 0 2331 0 2255.8 0C2180.7 0 2105.3 0 2030 0C1954.7 0 1879.3 0 1804.2 0C1729 0 1654 0 1578.8 0C1503.7 0 1428.3 0 1353.2 0C1278 0 1203 0 1127.8 0C1052.7 0 977.3 0 902.2 0C827 0 752 0 676.8 0C601.7 0 526.3 0 451.2 0C376 0 301 0 225.8 0C150.7 0 75.3 0 37.7 0L0 0Z" fill="#100d25"></path><path d="M0 21L37.7 26.2C75.3 31.3 150.7 41.7 225.8 48.3C301 55 376 58 451.2 57.3C526.3 56.7 601.7 52.3 676.8 47.2C752 42 827 36 902.2 38.8C977.3 41.7 1052.7 53.3 1127.8 58.3C1203 63.3 1278 61.7 1353.2 58C1428.3 54.3 1503.7 48.7 1578.8 40.5C1654 32.3 1729 21.7 1804.2 26C1879.3 30.3 1954.7 49.7 2030 53.2C2105.3 56.7 2180.7 44.3 2255.8 39.2C2331 34 2406 36 2481.2 39.5C2556.3 43 2631.7 48 2706.8 51.8C2782 55.7 2857 58.3 2932.2 56.8C3007.3 55.3 3082.7 49.7 3157.8 43.5C3233 37.3 3308 30.7 3383.2 29.7C3458.3 28.7 3533.7 33.3 3608.8 40.5C3684 47.7 3759 57.3 3834.2 52.5C3909.3 47.7 3984.7 28.3 4022.3 18.7L4060 9L4060 0L4022.3 0C3984.7 0 3909.3 0 3834.2 0C3759 0 3684 0 3608.8 0C3533.7 0 3458.3 0 3383.2 0C3308 0 3233 0 3157.8 0C3082.7 0 3007.3 0 2932.2 0C2857 0 2782 0 2706.8 0C2631.7 0 2556.3 0 2481.2 0C2406 0 2331 0 2255.8 0C2180.7 0 2105.3 0 2030 0C1954.7 0 1879.3 0 1804.2 0C1729 0 1654 0 1578.8 0C1503.7 0 1428.3 0 1353.2 0C1278 0 1203 0 1127.8 0C1052.7 0 977.3 0 902.2 0C827 0 752 0 676.8 0C601.7 0 526.3 0 451.2 0C376 0 301 0 225.8 0C150.7 0 75.3 0 37.7 0L0 0Z" fill="#0a0814"></path></svg>