<svg id="visual" viewBox="0 0 4060 900" width="4060" height="900" xmlns="http://www.w3.org/2000/svg" xmlns:xlink="http://www.w3.org/1999/xlink" version="1.1"><rect x="0" y="0" width="4060" height="900" fill="#010c14"></rect><path d="M0 737L48.3 739.8C96.7 742.7 193.3 748.3 290 753.7C386.7 759 483.3 764 580 775C676.7 786 773.3 803 870 802.3C966.7 801.7 1063.3 783.3 1160 775.3C1256.7 767.3 1353.3 769.7 1450 774C1546.7 778.3 1643.3 784.7 1740 781.2C1836.7 777.7 1933.3 764.3 2030 763.2C2126.7 762 2223.3 773 2320 776.8C2416.7 780.7 2513.3 777.3 2610 775.3C2706.7 773.3 2803.3 772.7 2900 766.3C2996.7 760 3093.3 748 3190 754.2C3286.7 760.3 3383.3 784.7 3480 798.2C3576.7 811.7 3673.3 814.3 3770 812.5C3866.7 810.7 3963.3 804.3 4011.7 801.2L4060 798L4060 901L4011.7 901C3963.3 901 3866.7 901 3770 901C3673.3 901 3576.7 901 3480 901C3383.3 901 3286.7 901 3190 901C3093.3 901 2996.7 901 2900 901C2803.3 901 2706.7 901 2610 901C2513.3 901 2416.7 901 2320 901C2223.3 901 2126.7 901 2030 901C1933.3 901 1836.7 901 1740 901C1643.3 901 1546.7 901 1450 901C1353.3 901 1256.7 901 1160 901C1063.3 901 966.7 901 870 901C773.3 901 676.7 901 580 901C483.3 901 386.7 901 290 901C193.3 901 96.7 901 48.3 901L0 901Z" fill="#0f135a"></path><path d="M0 793L48.3 790.8C96.7 788.7 193.3 784.3 290 790.3C386.7 796.3 483.3 812.7 580 821.7C676.7 830.7 773.3 832.3 870 822.8C966.7 813.3 1063.3 792.7 1160 783C1256.7 773.3 1353.3 774.7 1450 782.7C1546.7 790.7 1643.3 805.3 1740 810.2C1836.7 815 1933.3 810 2030 802.8C2126.7 795.7 2223.3 786.3 2320 783C2416.7 779.7 2513.3 782.3 2610 785.7C2706.7 789 2803.3 793 2900 801.5C2996.7 810 3093.3 823 3190 817.5C3286.7 812 3383.3 788 3480 784C3576.7 780 3673.3 796 3770 798.7C3866.7 801.3 3963.3 790.7 4011.7 785.3L4060 780L4060 901L4011.7 901C3963.3 901 3866.7 901 3770 901C3673.3 901 3576.7 901 3480 901C3383.3 901 3286.7 901 3190 901C3093.3 901 2996.7 901 2900 901C2803.3 901 2706.7 901 2610 901C2513.3 901 2416.7 901 2320 901C2223.3 901 2126.7 901 2030 901C1933.3 901 1836.7 901 1740 901C1643.3 901 1546.7 901 1450 901C1353.3 901 1256.7 901 1160 901C1063.3 901 966.7 901 870 901C773.3 901 676.7 901 580 901C483.3 901 386.7 901 290 901C193.3 901 96.7 901 48.3 901L0 901Z" fill="#0f1348"></path><path d="M0 790L48.3 795.5C96.7 801 193.3 812 290 814.8C386.7 817.7 483.3 812.3 580 811.2C676.7 810 773.3 813 870 820.2C966.7 827.3 1063.3 838.7 1160 837.2C1256.7 835.7 1353.3 821.3 1450 822.3C1546.7 823.3 1643.3 839.7 1740 844C1836.7 848.3 1933.3 840.7 2030 840.7C2126.7 840.7 2223.3 848.3 2320 849.7C2416.7 851 2513.3 846 2610 838.7C2706.7 831.3 2803.3 821.7 2900 813.3C2996.7 805 3093.3 798 3190 805.7C3286.7 813.3 3383.3 835.7 3480 840.3C3576.7 845 3673.3 832 3770 831.5C3866.7 831 3963.3 843 4011.7 849L4060 855L4060 901L4011.7 901C3963.3 901 3866.7 901 3770 901C3673.3 901 3576.7 901 3480 901C3383.3 901 3286.7 901 3190 901C3093.3 901 2996.7 901 2900 901C2803.3 901 2706.7 901 2610 901C2513.3 901 2416.7 901 2320 901C2223.3 901 2126.7 901 2030 901C1933.3 901 1836.7 901 1740 901C1643.3 901 1546.7 901 1450 901C1353.3 901 1256.7 901 1160 901C1063.3 901 966.7 901 870 901C773.3 901 676.7 901 580 901C483.3 901 386.7 901 290 901C193.3 901 96.7 901 48.3 901L0 901Z" fill="#101136"></path><path d="M0 853L48.3 847.8C96.7 842.7 193.3 832.3 290 827.5C386.7 822.7 483.3 823.3 580 825.8C676.7 828.3 773.3 832.7 870 837.5C966.7 842.3 1063.3 847.7 1160 846.8C1256.7 846 1353.3 839 1450 838.5C1546.7 838 1643.3 844 1740 843.3C1836.7 842.7 1933.3 835.3 2030 835.5C2126.7 835.7 2223.3 843.3 2320 842C2416.7 840.7 2513.3 830.3 2610 830.2C2706.7 830 2803.3 840 2900 847C2996.7 854 3093.3 858 3190 859.8C3286.7 861.7 3383.3 861.3 3480 858.2C3576.7 855 3673.3 849 3770 843.8C3866.7 838.7 3963.3 834.3 4011.7 832.2L4060 830L4060 901L4011.7 901C3963.3 901 3866.7 901 3770 901C3673.3 901 3576.7 901 3480 901C3383.3 901 3286.7 901 3190 901C3093.3 901 2996.7 901 2900 901C2803.3 901 2706.7 901 2610 901C2513.3 901 2416.7 901 2320 901C2223.3 901 2126.7 901 2030 901C1933.3 901 1836.7 901 1740 901C1643.3 901 1546.7 901 1450 901C1353.3 901 1256.7 901 1160 901C1063.3 901 966.7 901 870 901C773.3 901 676.7 901 580 901C483.3 901 386.7 901 290 901C193.3 901 96.7 901 48.3 901L0 901Z" fill="#100d25"></path><path d="M0 866L48.3 869C96.7 872 193.3 878 290 875.5C386.7 873 483.3 862 580 858.5C676.7 855 773.3 859 870 865.7C966.7 872.3 1063.3 881.7 1160 879.3C1256.7 877 1353.3 863 1450 862.5C1546.7 862 1643.3 875 1740 881.7C1836.7 888.3 1933.3 888.7 2030 882.5C2126.7 876.3 2223.3 863.7 2320 860.8C2416.7 858 2513.3 865 2610 870.8C2706.7 876.7 2803.3 881.3 2900 879.7C2996.7 878 3093.3 870 3190 865C3286.7 860 3383.3 858 3480 860.3C3576.7 862.7 3673.3 869.3 3770 875.2C3866.7 881 3963.3 886 4011.7 888.5L4060 891L4060 901L4011.7 901C3963.3 901 3866.7 901 3770 901C3673.3 901 3576.7 901 3480 901C3383.3 901 3286.7 901 3190 901C3093.3 901 2996.7 901 2900 901C2803.3 901 2706.7 901 2610 901C2513.3 901 2416.7 901 2320 901C2223.3 901 2126.7 901 2030 901C1933.3 901 1836.7 901 1740 901C1643.3 901 1546.7 901 1450 901C1353.3 901 1256.7 901 1160 901C1063.3 901 966.7 901 870 901C773.3 901 676.7 901 580 901C483.3 901 386.7 901 290 901C193.3 901 96.7 901 48.3 901L0 901Z" fill="#0a0814"></path></svg>