<svg id="visual" viewBox="0 0 4060 800" width="4060" height="800" xmlns="http://www.w3.org/2000/svg" xmlns:xlink="http://www.w3.org/1999/xlink" version="1.1"><rect x="0" y="0" width="4060" height="800" fill="#010c14"></rect><path d="M0 631L45.2 633.8C90.3 636.7 180.7 642.3 270.8 634.8C361 627.3 451 606.7 541.2 598.3C631.3 590 721.7 594 812 604.5C902.3 615 992.7 632 1082.8 644.3C1173 656.7 1263 664.3 1353.2 660.2C1443.3 656 1533.7 640 1624 634.2C1714.3 628.3 1804.7 632.7 1894.8 628.8C1985 625 2075 613 2165.2 611.7C2255.3 610.3 2345.7 619.7 2436 627.8C2526.3 636 2616.7 643 2706.8 653C2797 663 2887 676 2977.2 674.5C3067.3 673 3157.7 657 3248 651.8C3338.3 646.7 3428.7 652.3 3518.8 646.3C3609 640.3 3699 622.7 3789.2 617.2C3879.3 611.7 3969.7 618.3 4014.8 621.7L4060 625L4060 801L4014.8 801C3969.7 801 3879.3 801 3789.2 801C3699 801 3609 801 3518.8 801C3428.7 801 3338.3 801 3248 801C3157.7 801 3067.3 801 2977.2 801C2887 801 2797 801 2706.8 801C2616.7 801 2526.3 801 2436 801C2345.7 801 2255.3 801 2165.2 801C2075 801 1985 801 1894.8 801C1804.7 801 1714.3 801 1624 801C1533.7 801 1443.3 801 1353.2 801C1263 801 1173 801 1082.8 801C992.7 801 902.3 801 812 801C721.7 801 631.3 801 541.2 801C451 801 361 801 270.8 801C180.7 801 90.3 801 45.2 801L0 801Z" fill="#0f135a"></path><path d="M0 645L45.2 653C90.3 661 180.7 677 270.8 687.3C361 697.7 451 702.3 541.2 698.3C631.3 694.3 721.7 681.7 812 679.3C902.3 677 992.7 685 1082.8 687.3C1173 689.7 1263 686.3 1353.2 685.7C1443.3 685 1533.7 687 1624 688C1714.3 689 1804.7 689 1894.8 677.8C1985 666.7 2075 644.3 2165.2 637.7C2255.3 631 2345.7 640 2436 653.5C2526.3 667 2616.7 685 2706.8 686.2C2797 687.3 2887 671.7 2977.2 658.7C3067.3 645.7 3157.7 635.3 3248 638.7C3338.3 642 3428.7 659 3518.8 663.2C3609 667.3 3699 658.7 3789.2 654C3879.3 649.3 3969.7 648.7 4014.8 648.3L4060 648L4060 801L4014.8 801C3969.7 801 3879.3 801 3789.2 801C3699 801 3609 801 3518.8 801C3428.7 801 3338.3 801 3248 801C3157.7 801 3067.3 801 2977.2 801C2887 801 2797 801 2706.8 801C2616.7 801 2526.3 801 2436 801C2345.7 801 2255.3 801 2165.2 801C2075 801 1985 801 1894.8 801C1804.7 801 1714.3 801 1624 801C1533.7 801 1443.3 801 1353.2 801C1263 801 1173 801 1082.8 801C992.7 801 902.3 801 812 801C721.7 801 631.3 801 541.2 801C451 801 361 801 270.8 801C180.7 801 90.3 801 45.2 801L0 801Z" fill="#0f1348"></path><path d="M0 690L45.2 688.7C90.3 687.3 180.7 684.7 270.8 689.5C361 694.3 451 706.7 541.2 713.3C631.3 720 721.7 721 812 711.5C902.3 702 992.7 682 1082.8 681.2C1173 680.3 1263 698.7 1353.2 705.8C1443.3 713 1533.7 709 1624 700.7C1714.3 692.3 1804.7 679.7 1894.8 682.2C1985 684.7 2075 702.3 2165.2 701.8C2255.3 701.3 2345.7 682.7 2436 674.3C2526.3 666 2616.7 668 2706.8 670C2797 672 2887 674 2977.2 679.8C3067.3 685.7 3157.7 695.3 3248 699.8C3338.3 704.3 3428.7 703.7 3518.8 703.3C3609 703 3699 703 3789.2 709.2C3879.3 715.3 3969.7 727.7 4014.8 733.8L4060 740L4060 801L4014.8 801C3969.7 801 3879.3 801 3789.2 801C3699 801 3609 801 3518.8 801C3428.7 801 3338.3 801 3248 801C3157.7 801 3067.3 801 2977.2 801C2887 801 2797 801 2706.8 801C2616.7 801 2526.3 801 2436 801C2345.7 801 2255.3 801 2165.2 801C2075 801 1985 801 1894.8 801C1804.7 801 1714.3 801 1624 801C1533.7 801 1443.3 801 1353.2 801C1263 801 1173 801 1082.8 801C992.7 801 902.3 801 812 801C721.7 801 631.3 801 541.2 801C451 801 361 801 270.8 801C180.7 801 90.3 801 45.2 801L0 801Z" fill="#101136"></path><path d="M0 757L45.2 755.8C90.3 754.7 180.7 752.3 270.8 748.7C361 745 451 740 541.2 739.2C631.3 738.3 721.7 741.7 812 737.8C902.3 734 992.7 723 1082.8 716C1173 709 1263 706 1353.2 705C1443.3 704 1533.7 705 1624 707.8C1714.3 710.7 1804.7 715.3 1894.8 715.2C1985 715 2075 710 2165.2 712.7C2255.3 715.3 2345.7 725.7 2436 731C2526.3 736.3 2616.7 736.7 2706.8 730.5C2797 724.3 2887 711.7 2977.2 708.7C3067.3 705.7 3157.7 712.3 3248 711.8C3338.3 711.3 3428.7 703.7 3518.8 704.8C3609 706 3699 716 3789.2 718.7C3879.3 721.3 3969.7 716.7 4014.8 714.3L4060 712L4060 801L4014.8 801C3969.7 801 3879.3 801 3789.2 801C3699 801 3609 801 3518.8 801C3428.7 801 3338.3 801 3248 801C3157.7 801 3067.3 801 2977.2 801C2887 801 2797 801 2706.8 801C2616.7 801 2526.3 801 2436 801C2345.7 801 2255.3 801 2165.2 801C2075 801 1985 801 1894.8 801C1804.7 801 1714.3 801 1624 801C1533.7 801 1443.3 801 1353.2 801C1263 801 1173 801 1082.8 801C992.7 801 902.3 801 812 801C721.7 801 631.3 801 541.2 801C451 801 361 801 270.8 801C180.7 801 90.3 801 45.2 801L0 801Z" fill="#100d25"></path><path d="M0 774L45.2 769.7C90.3 765.3 180.7 756.7 270.8 752.5C361 748.3 451 748.7 541.2 750.5C631.3 752.3 721.7 755.7 812 759.5C902.3 763.3 992.7 767.7 1082.8 765.2C1173 762.7 1263 753.3 1353.2 746.7C1443.3 740 1533.7 736 1624 735C1714.3 734 1804.7 736 1894.8 743.2C1985 750.3 2075 762.7 2165.2 761.8C2255.3 761 2345.7 747 2436 745C2526.3 743 2616.7 753 2706.8 753.5C2797 754 2887 745 2977.2 741C3067.3 737 3157.7 738 3248 745.7C3338.3 753.3 3428.7 767.7 3518.8 769.2C3609 770.7 3699 759.3 3789.2 757.8C3879.3 756.3 3969.7 764.7 4014.8 768.8L4060 773L4060 801L4014.8 801C3969.7 801 3879.3 801 3789.2 801C3699 801 3609 801 3518.8 801C3428.7 801 3338.3 801 3248 801C3157.7 801 3067.3 801 2977.2 801C2887 801 2797 801 2706.8 801C2616.7 801 2526.3 801 2436 801C2345.7 801 2255.3 801 2165.2 801C2075 801 1985 801 1894.8 801C1804.7 801 1714.3 801 1624 801C1533.7 801 1443.3 801 1353.2 801C1263 801 1173 801 1082.8 801C992.7 801 902.3 801 812 801C721.7 801 631.3 801 541.2 801C451 801 361 801 270.8 801C180.7 801 90.3 801 45.2 801L0 801Z" fill="#0a0814"></path></svg>