<svg id="visual" viewBox="0 0 1903 700" width="1903" height="700" xmlns="http://www.w3.org/2000/svg" xmlns:xlink="http://www.w3.org/1999/xlink" version="1.1"><rect width="1903" height="700" fill="#010c14"></rect><g><g transform="translate(1419 342)"><path d="M0 -37.9L32.9 -19L32.9 19L0 37.9L-32.9 19L-32.9 -19Z" fill="none" stroke="#298fa6" stroke-width="2"></path></g><g transform="translate(1018 553)"><path d="M0 -34L29.4 -17L29.4 17L0 34L-29.4 17L-29.4 -17Z" fill="none" stroke="#298fa6" stroke-width="2"></path></g><g transform="translate(146 409)"><path d="M0 -17L14.7 -8.5L14.7 8.5L0 17L-14.7 8.5L-14.7 -8.5Z" fill="none" stroke="#298fa6" stroke-width="2"></path></g><g transform="translate(1816 226)"><path d="M0 -26L22.5 -13L22.5 13L0 26L-22.5 13L-22.5 -13Z" fill="none" stroke="#298fa6" stroke-width="2"></path></g><g transform="translate(1755 294)"><path d="M0 -6L5.2 -3L5.2 3L0 6L-5.2 3L-5.2 -3Z" fill="none" stroke="#298fa6" stroke-width="2"></path></g><g transform="translate(420 320)"><path d="M0 -21L18.2 -10.5L18.2 10.5L0 21L-18.2 10.5L-18.2 -10.5Z" fill="none" stroke="#298fa6" stroke-width="2"></path></g><g transform="translate(1864 389)"><path d="M0 -29L25.1 -14.5L25.1 14.5L0 29L-25.1 14.5L-25.1 -14.5Z" fill="none" stroke="#298fa6" stroke-width="2"></path></g><g transform="translate(391 118)"><path d="M0 -14L12.1 -7L12.1 7L0 14L-12.1 7L-12.1 -7Z" fill="none" stroke="#298fa6" stroke-width="2"></path></g><g transform="translate(622 191)"><path d="M0 -15L13 -7.5L13 7.5L0 15L-13 7.5L-13 -7.5Z" fill="none" stroke="#298fa6" stroke-width="2"></path></g><g transform="translate(1271 259)"><path d="M0 -17L14.7 -8.5L14.7 8.5L0 17L-14.7 8.5L-14.7 -8.5Z" fill="none" stroke="#298fa6" stroke-width="2"></path></g><g transform="translate(1731 39)"><path d="M0 -7L6.1 -3.5L6.1 3.5L0 7L-6.1 3.5L-6.1 -3.5Z" fill="none" stroke="#298fa6" stroke-width="2"></path></g><g transform="translate(733 306)"><path d="M0 -9L7.8 -4.5L7.8 4.5L0 9L-7.8 4.5L-7.8 -4.5Z" fill="none" stroke="#298fa6" stroke-width="2"></path></g><g transform="translate(1250 62)"><path d="M0 -15L13 -7.5L13 7.5L0 15L-13 7.5L-13 -7.5Z" fill="none" stroke="#298fa6" stroke-width="2"></path></g><g transform="translate(681 436)"><path d="M0 -6L5.2 -3L5.2 3L0 6L-5.2 3L-5.2 -3Z" fill="none" stroke="#298fa6" stroke-width="2"></path></g><g transform="translate(1635 257)"><path d="M0 -24L20.8 -12L20.8 12L0 24L-20.8 12L-20.8 -12Z" fill="none" stroke="#298fa6" stroke-width="2"></path></g><g transform="translate(653 66)"><path d="M0 -12L10.4 -6L10.4 6L0 12L-10.4 6L-10.4 -6Z" fill="none" stroke="#298fa6" stroke-width="2"></path></g><g transform="translate(471 528)"><path d="M0 -20L17.3 -10L17.3 10L0 20L-17.3 10L-17.3 -10Z" fill="none" stroke="#298fa6" stroke-width="2"></path></g><g transform="translate(1002 213)"><path d="M0 -26L22.5 -13L22.5 13L0 26L-22.5 13L-22.5 -13Z" fill="none" stroke="#298fa6" stroke-width="2"></path></g><g transform="translate(11 127)"><path d="M0 -11L9.5 -5.5L9.5 5.5L0 11L-9.5 5.5L-9.5 -5.5Z" fill="none" stroke="#298fa6" stroke-width="2"></path></g><g transform="translate(1143 561)"><path d="M0 -33L28.6 -16.5L28.6 16.5L0 33L-28.6 16.5L-28.6 -16.5Z" fill="none" stroke="#298fa6" stroke-width="2"></path></g><g transform="translate(228 24)"><path d="M0 -8L6.9 -4L6.9 4L0 8L-6.9 4L-6.9 -4Z" fill="none" stroke="#298fa6" stroke-width="2"></path></g></g></svg>