<svg id="visual" viewBox="0 0 1903 1000" width="1903" height="1000" xmlns="http://www.w3.org/2000/svg" xmlns:xlink="http://www.w3.org/1999/xlink" version="1.1"><rect x="0" y="0" width="1903" height="1000" fill="#010c14"></rect><path d="M0 161L19.8 151.2C39.7 141.3 79.3 121.7 119 115.2C158.7 108.7 198.3 115.3 238 118.5C277.7 121.7 317.3 121.3 357 116.7C396.7 112 436.3 103 476 99.3C515.7 95.7 555.3 97.3 595 101.3C634.7 105.3 674.3 111.7 714 111C753.7 110.3 793.3 102.7 833 102.2C872.7 101.7 912.3 108.3 951.8 115.7C991.3 123 1030.7 131 1070.2 130.2C1109.7 129.3 1149.3 119.7 1189 117C1228.7 114.3 1268.3 118.7 1308 118.2C1347.7 117.7 1387.3 112.3 1427 116.8C1466.7 121.3 1506.3 135.7 1546 143.7C1585.7 151.7 1625.3 153.3 1665 152.2C1704.7 151 1744.3 147 1784 145C1823.7 143 1863.3 143 1883.2 143L1903 143L1903 0L1883.2 0C1863.3 0 1823.7 0 1784 0C1744.3 0 1704.7 0 1665 0C1625.3 0 1585.7 0 1546 0C1506.3 0 1466.7 0 1427 0C1387.3 0 1347.7 0 1308 0C1268.3 0 1228.7 0 1189 0C1149.3 0 1109.7 0 1070.2 0C1030.7 0 991.3 0 951.8 0C912.3 0 872.7 0 833 0C793.3 0 753.7 0 714 0C674.3 0 634.7 0 595 0C555.3 0 515.7 0 476 0C436.3 0 396.7 0 357 0C317.3 0 277.7 0 238 0C198.3 0 158.7 0 119 0C79.3 0 39.7 0 19.8 0L0 0Z" fill="#0f135a"></path><path d="M0 87L19.8 90.2C39.7 93.3 79.3 99.7 119 96.8C158.7 94 198.3 82 238 82.5C277.7 83 317.3 96 357 101C396.7 106 436.3 103 476 96.5C515.7 90 555.3 80 595 78.2C634.7 76.3 674.3 82.7 714 89.2C753.7 95.7 793.3 102.3 833 104.5C872.7 106.7 912.3 104.3 951.8 99.7C991.3 95 1030.7 88 1070.2 85.8C1109.7 83.7 1149.3 86.3 1189 83.8C1228.7 81.3 1268.3 73.7 1308 72.8C1347.7 72 1387.3 78 1427 82.2C1466.7 86.3 1506.3 88.7 1546 93.3C1585.7 98 1625.3 105 1665 100.2C1704.7 95.3 1744.3 78.7 1784 76.2C1823.7 73.7 1863.3 85.3 1883.2 91.2L1903 97L1903 0L1883.2 0C1863.3 0 1823.7 0 1784 0C1744.3 0 1704.7 0 1665 0C1625.3 0 1585.7 0 1546 0C1506.3 0 1466.7 0 1427 0C1387.3 0 1347.7 0 1308 0C1268.3 0 1228.7 0 1189 0C1149.3 0 1109.7 0 1070.2 0C1030.7 0 991.3 0 951.8 0C912.3 0 872.7 0 833 0C793.3 0 753.7 0 714 0C674.3 0 634.7 0 595 0C555.3 0 515.7 0 476 0C436.3 0 396.7 0 357 0C317.3 0 277.7 0 238 0C198.3 0 158.7 0 119 0C79.3 0 39.7 0 19.8 0L0 0Z" fill="#101136"></path><path d="M0 63L19.8 58.2C39.7 53.3 79.3 43.7 119 43.5C158.7 43.3 198.3 52.7 238 53.5C277.7 54.3 317.3 46.7 357 40.8C396.7 35 436.3 31 476 35C515.7 39 555.3 51 595 54.5C634.7 58 674.3 53 714 52.5C753.7 52 793.3 56 833 59C872.7 62 912.3 64 951.8 62C991.3 60 1030.7 54 1070.2 54.5C1109.7 55 1149.3 62 1189 63.5C1228.7 65 1268.3 61 1308 57.3C1347.7 53.7 1387.3 50.3 1427 51.8C1466.7 53.3 1506.3 59.7 1546 58.2C1585.7 56.7 1625.3 47.3 1665 47.2C1704.7 47 1744.3 56 1784 55.7C1823.7 55.3 1863.3 45.7 1883.2 40.8L1903 36L1903 0L1883.2 0C1863.3 0 1823.7 0 1784 0C1744.3 0 1704.7 0 1665 0C1625.3 0 1585.7 0 1546 0C1506.3 0 1466.7 0 1427 0C1387.3 0 1347.7 0 1308 0C1268.3 0 1228.7 0 1189 0C1149.3 0 1109.7 0 1070.2 0C1030.7 0 991.3 0 951.8 0C912.3 0 872.7 0 833 0C793.3 0 753.7 0 714 0C674.3 0 634.7 0 595 0C555.3 0 515.7 0 476 0C436.3 0 396.7 0 357 0C317.3 0 277.7 0 238 0C198.3 0 158.7 0 119 0C79.3 0 39.7 0 19.8 0L0 0Z" fill="#0a0814"></path></svg>