<svg id="visual" viewBox="0 0 800 500" width="800" height="500" xmlns="http://www.w3.org/2000/svg" xmlns:xlink="http://www.w3.org/1999/xlink" version="1.1"><g fill="#c6c8ff"><circle r="12" cx="476" cy="108"></circle><circle r="1" cx="341" cy="235"></circle><circle r="4" cx="185" cy="389"></circle><circle r="1" cx="585" cy="66"></circle><circle r="6" cx="88" cy="446"></circle><circle r="7" cx="486" cy="489"></circle><circle r="8" cx="570" cy="439"></circle><circle r="2" cx="120" cy="240"></circle><circle r="10" cx="15" cy="375"></circle><circle r="10" cx="674" cy="96"></circle><circle r="3" cx="184" cy="188"></circle><circle r="4" cx="543" cy="340"></circle><circle r="4" cx="132" cy="45"></circle><circle r="1" cx="349" cy="199"></circle><circle r="5" cx="88" cy="195"></circle><circle r="8" cx="239" cy="402"></circle><circle r="8" cx="441" cy="433"></circle><circle r="2" cx="780" cy="27"></circle><circle r="6" cx="265" cy="165"></circle><circle r="3" cx="436" cy="30"></circle><circle r="4" cx="571" cy="225"></circle><circle r="8" cx="723" cy="166"></circle><circle r="6" cx="300" cy="72"></circle><circle r="7" cx="270" cy="217"></circle><circle r="9" cx="478" cy="133"></circle><circle r="6" cx="58" cy="246"></circle><circle r="2" cx="722" cy="451"></circle><circle r="0" cx="691" cy="58"></circle><circle r="6" cx="544" cy="59"></circle><circle r="0" cx="390" cy="214"></circle><circle r="10" cx="546" cy="127"></circle><circle r="6" cx="406" cy="83"></circle></g></svg>